<svg width="48" height="48" viewBox="0 0 48 48" fill="none" xmlns="http://www.w3.org/2000/svg">
<path d="M28 20H37.5279C40.5014 20 42.4354 23.1293 41.1056 25.7889L34.1056 39.7889C33.428 41.144 32.043 42 30.5279 42H22.4924C22.1654 42 21.8396 41.9599 21.5223 41.8806L14 40M28 20V10C28 7.79086 26.2091 6 24 6H23.8091C22.8099 6 22 6.80994 22 7.80905C22 9.23766 21.5771 10.6343 20.7847 11.823L14 22V40M28 20H24M14 40H10C7.79086 40 6 38.2091 6 36V24C6 21.7909 7.79086 20 10 20H15" stroke="#B2B7BD" stroke-width="1.5" stroke-linecap="round" stroke-linejoin="round"/>
</svg>
