<svg xmlns="http://www.w3.org/2000/svg" viewBox="0 0 24 24"><defs><style>.a{fill:none;stroke:currentColor;stroke-linecap:round;stroke-linejoin:round;stroke-width:1.5px;}</style></defs><title>like-1</title><path class="a" d="M5.25,21.751a6,6,0,0,1,1.558.23l3.634,1.038a6,6,0,0,0,1.647.231h4.885a6,6,0,0,0,5.97-5.4l.3-5.1a4.5,4.5,0,0,0-3.4-4.594l-1.455-.318A1.5,1.5,0,0,1,17.25,6.382V3a2.25,2.25,0,0,0-4.5,0V4.554a7.5,7.5,0,0,1-7.5,7.5Z"/><rect class="a" x="0.75" y="9.75" width="4.5" height="13.5"/></svg>
