<svg viewBox="0 0 24 24" style="width: 36px;">
	<g transform="matrix(1,0,0,1,0,0)">
		<path d="M5.25,21.751a6,6,0,0,1,1.558.23l3.634,1.038a6,6,0,0,0,1.647.231h4.885a6,6,0,0,0,5.97-5.4l.3-5.1a4.5,4.5,0,0,0-3.4-4.594l-1.455-.318A1.5,1.5,0,0,1,17.25,6.382V3a2.25,2.25,0,0,0-4.5,0V4.554a7.5,7.5,0,0,1-7.5,7.5Z" fill="none" stroke="#404752" stroke-linecap="round" stroke-linejoin="round" stroke-width="1"></path>
		<path d="M0.75 9.75H5.25V23.25H0.75z" fill="none" stroke="#404752" stroke-linecap="round" stroke-linejoin="round" stroke-width="1"></path>
	</g>
</svg>
