<?xml version="1.0" encoding="UTF-8"?>
<svg width="98px" height="98px" viewBox="0 0 98 98" version="1.1" xmlns="http://www.w3.org/2000/svg" xmlns:xlink="http://www.w3.org/1999/xlink">
    <!-- Generator: Sketch 59.1 (86144) - https://sketch.com -->
    <title>Group</title>
    <desc>Created with Sketch.</desc>
    <g id="Symbols" stroke="none" stroke-width="1" fill="none" fill-rule="evenodd" stroke-linecap="round" stroke-linejoin="round">
        <g id="Sandbox/Icons/Movie" transform="translate(1.000000, 1.000000)" stroke="#525865">
            <g id="Group">
                <path d="M73.5189873,51.0379747 C85.9366812,51.0379747 96,61.1012934 96,73.5189873 C96,85.9366812 85.9366812,96 73.5189873,96 C61.1012934,96 51.0379747,85.9366812 51.0379747,73.5189873 C51.0379747,61.1012934 61.1012934,51.0379747 73.5189873,51.0379747 Z" id="Path"></path>
                <path d="M8.34782609,0 L87.6521739,0 C92.2643478,0 96,3.91534177 96,8.74936709 L96,19.6860759 C96,20.8934886 95.0650435,21.8734177 93.9130435,21.8734177 L2.08695652,21.8734177 C0.934956522,21.8734177 0,20.8934886 0,19.6860759 L0,8.74936709 C0,3.91534177 3.73565217,0 8.34782609,0 Z" id="Path"></path>
                <line x1="0" y1="18.2278481" x2="18.2278481" y2="0" id="Path"></line>
                <line x1="15.1898734" y1="21.8734177" x2="37.0632911" y2="0" id="Path"></line>
                <line x1="37.0632911" y1="21.8734177" x2="58.9367089" y2="0" id="Path"></line>
                <line x1="58.9367089" y1="21.8734177" x2="80.8101266" y2="0" id="Path"></line>
                <line x1="78.3797468" y1="21.8734177" x2="94.1772152" y2="6.07594937" id="Path"></line>
                <path d="M96,50.2133816 L96,31.2694394 C96,30.1075443 95.0650435,29.164557 93.9130435,29.164557 L2.08695652,29.164557 C0.934956522,29.164557 0,30.1075443 0,31.2694394 L0,79.681736 C0,84.3335262 3.73565217,88.1012658 8.34782609,88.1012658 L41.7391304,88.1012658" id="Path"></path>
                <polygon id="Path" points="66.2278481 61.9746835 66.2278481 83.8481013 86.278481 72.9113924"></polygon>
            </g>
        </g>
    </g>
</svg>
